<?xml version="1.0" encoding="utf-8"?>
<!-- Generator: Adobe Illustrator 22.1.0, SVG Export Plug-In . SVG Version: 6.00 Build 0)  -->
<svg version="1.1" id="Laag_1" xmlns="http://www.w3.org/2000/svg" xmlns:xlink="http://www.w3.org/1999/xlink" x="0px" y="0px"
	 viewBox="0 0 1133.9 176.8" style="enable-background:new 0 0 1133.9 176.8;" xml:space="preserve">
<style type="text/css">
	.st0{fill:#F9F9F9;}
	.st1{fill:#93979B;}
</style>
<g>
	<path class="st0" d="M142.3,138.2c14.9,0,29.7,0,44.6,0c4.9,0,5.5-0.6,5.5-5.6c0-3.1,0-6.2,0-9.2c-0.1-3.1-1-3.9-4.1-4
		c-0.8,0-1.6,0-2.4,0c-21,0-42,0-63.1,0c-4.8,0-9.6-0.3-14.3-1.5c-7-1.7-10.8-5.5-11.6-12.6c-0.8-6.9-0.7-13.9,0-20.8
		c0.7-6.8,4.7-10.9,11.2-12.5c5-1.2,10-1.5,15.1-1.5c21,0,42,0,63.1,0c4.7,0,9.4,0.4,13.9,1.7c4.4,1.2,8.1,3.4,10.6,7.4
		c0.9,1.4,1.4,2.8,0.6,4.5c-0.9,1.8-2.5,1.3-3.9,1.3c-27,0-54.1,0-81.1,0c-0.7,0-1.3,0-2,0c-5.2,0-5.5,0.3-5.5,5.4
		c0,2.8-0.1,5.6,0,8.4c0.1,2.6,1.1,3.6,3.6,3.8c0.9,0.1,1.9,0,2.8,0c19.3,0,38.6,0,57.8,0c5.9,0,11.8,0,17.6,1
		c2.1,0.4,4.2,0.9,6.1,1.8c4.7,2.2,7.1,6.1,7.7,11c0.9,7.9,0.9,15.8,0,23.6c-0.8,6.3-4.5,10.4-10.8,12c-4.4,1.2-9,1.6-13.5,1.6
		c-24.6,0-49.3,0-73.9,0c-5,0-9.9-0.4-14.6-2c-4.7-1.6-7.7-4.8-9-9.5c-0.8-3.1,0-4.3,3.2-4.4c5.6-0.1,11.2,0,16.9,0
		c9.8,0,19.5,0,29.3,0C142.3,138.1,142.3,138.1,142.3,138.2z"/>
	<path class="st0" d="M301.2,70.5c15.1,0,30.2-0.1,45.4,0c4,0,8,0.6,11.8,2c5.9,2.2,9.2,6.3,9.3,12.7c0.1,7.2,0.1,14.5,0,21.7
		c-0.1,6.4-3.5,10.5-9.4,12.6c-5,1.8-10.2,2-15.4,2.1c-20.6,0.1-41.2,0-61.8,0c-0.8,0-1.6,0-2.4,0c-3.4,0.1-4.5,1.2-4.6,4.6
		c0,7.8,0,15.5,0,23.3c0,5.3,0.4,4.5-4.5,4.5c-6,0-12,0-18.1,0c-2.8,0-2.8-0.1-2.8-2.9c0-13.3,0-26.5,0-39.8c0-11.6,0-23.3,0-34.9
		c0-4.3,1.7-6,6-6c15.5,0,31.1,0,46.6,0C301.2,70.4,301.2,70.5,301.2,70.5z M306.5,106.9c8.6,0,17.1,0,25.7,0c2,0,4-0.1,6-0.5
		c3.1-0.6,4.5-2.4,4.7-5.6c0.1-2.1,0-4.3,0-6.4c0-7.5-1.6-9-9.1-9.3c-0.7,0-1.3,0-2,0c-5.5,0-11,0-16.4,0c-12,0-24.1,0-36.1,0
		c-4.2,0-5.2,1-5.2,5.2c0,3.6,0.3,7.2-0.1,10.8c-0.4,4,2,6,6.1,5.9C288.8,106.7,297.7,106.9,306.5,106.9z"/>
	<path class="st0" d="M592.9,85.5c-13.8,0-27.6,0-41.4,0c-1.1,0-2.2-0.1-3.2,0c-2.4,0.3-3.2,1.2-3.3,3.7c-0.1,3.5,0,7,0,10.4
		c0,10.6,0.2,21.2-0.1,31.7c-0.1,5.8,1.6,6.8,7,6.8c27.3-0.1,54.6-0.1,81.9-0.1c5.1,0,5.2,0.3,3.8,5.2c-1.3,4.6-4.3,7.3-8.7,8.7
		c-4.4,1.4-8.9,1.8-13.5,1.8c-24.2,0-48.5,0-72.7,0c-4.2,0-8.3-0.5-12.3-1.5c-6.6-1.6-10.3-5.9-11.1-12.6c-0.3-2.1-0.4-4.3-0.4-6.4
		c0-14.2,0-28.4,0-42.6c0-2.8,0.2-5.6,0.8-8.4c1.2-5.2,4.3-8.5,9.3-10.1c4.1-1.3,8.4-1.8,12.7-1.9c17.8-0.1,35.6-0.2,53.4-0.1
		c9.4,0,18.7-0.5,28.1,0.7c2.4,0.3,4.7,0.8,7,1.7c4.5,1.7,7.2,4.9,8.4,9.5c0.7,3,0.6,3.3-2.5,3.3c-5.8,0-11.5,0-17.3,0
		C610.3,85.5,601.6,85.5,592.9,85.5z"/>
	<path class="st1" d="M1139.7,24.1c-4.8,0.7-9,1.4-13.2,2c-58,8.8-113.5,25.4-166,51.9c-38.4,19.3-73.4,43.5-104,73.9
		c-1.6,1.5-3.1,2.2-5.3,2.2c-9.4-0.1-18.7,0-28.1,0c-1.5,0-2.8,0.1-3.9-1.4c-2.1-2.9-2.2-3.1,0.5-5.6c15.9-15.1,33.2-28.3,51.5-40.2
		c32.5-21,67.3-37.4,103.9-50.1c43-15,87.3-24.6,132.4-30.2c8.8-1.1,17.5-2.2,26.4-2.7C1135.7,23.7,1137.4,23.3,1139.7,24.1z"/>
	<path class="st0" d="M674.7,153.8c-0.5-1.3-0.3-2.5-0.3-3.7c0-15.8,0-31.6,0-47.4c0-0.8,0-1.6,0-2.4c0-1.1,0.4-1.8,1.6-1.7
		c0.8,0,1.6,0,2.4,0c22.7,0,45.5,0,68.2,0c0.7,0,1.3,0.1,2,0c1.8-0.2,2.3,0.7,2.2,2.4c-0.1,3.1,0,6.2,0,9.2c0,2.7-0.1,2.8-3,2.8
		c-11.9,0-23.8,0-35.7,0c-2.4,0-4.8,0-7.2,0c-3.4,0.1-4.6,1.2-4.7,4.5c-0.1,5.9-0.1,11.8,0,17.7c0,3,1.4,4.3,4.3,4.5
		c1.1,0.1,2.1,0,3.2,0c24.5,0,49,0,73.5,0c0.9,0,1.9,0,2.8,0c3,0.1,3,0.1,3.1,3.1c0,3.6,0,7.2,0,11
		C749.4,153.8,712,153.8,674.7,153.8z"/>
	<path class="st0" d="M374.4,135c3.7-4.5,7.3-9,10.9-13.4c1.1-1.4,2.6-1.1,4.1-1.1c13.4,0,26.8,0,40.2,0c0.9,0,1.9,0.1,2.8,0
		c2.3-0.2,3.2-1.9,2.2-3.9c-0.4-0.7-0.9-1.3-1.3-2c-6-8.7-11.9-17.5-17.9-26.2c-1.3-1.8-1.4-3.1,0.1-4.9c3.5-4,6.8-8.3,10.2-12.4
		c0.4-0.5,0.7-1.1,1.9-1.2c20.7,27.6,41.5,55.4,62.3,83.2c-0.8,1.3-1.9,0.8-2.7,0.8c-7.6,0-15.3-0.1-22.9,0.1
		c-2.1,0-3.5-0.6-4.6-2.3c-2.2-3.3-4.8-6.5-7-9.8c-2.9-4.3-6.7-6.4-12.1-6.3c-20.5,0.2-41,0.1-61.5,0.1
		C377.5,135.6,376,136.1,374.4,135z"/>
	<path class="st0" d="M674.3,70.4c1.7,0,2.7,0,3.8,0c35.4,0,70.7,0,106.1,0c0.4,0,0.8,0,1.2,0c3,0.1,3,0.1,3,3.2c0,3.5,0,7,0,10.4
		c0,1.7-0.5,2.5-2.3,2.4c-0.8-0.1-1.6,0-2.4,0c-35.1,0-70.2,0-105.3,0c-0.7,0-1.3-0.1-2,0c-1.5,0.1-2.2-0.4-2.2-2
		C674.4,79.8,674.3,75.3,674.3,70.4z"/>
	<path class="st0" d="M893.6,127c6.5-5.5,12.9-10.4,19.4-15.4c1.7-1.3,2.8-0.7,4.2,0.3c8.9,6.6,17.9,13.1,26.9,19.7
		c7.8,5.7,15.6,11.4,23.3,17.1c1,0.7,2.5,1.1,1.7,3.1c-0.7,1.5-1.5,2.3-3.3,2.2c-11.4-0.1-22.7-0.1-34.1,0c-1.3,0-2.3-0.4-3.3-1.1
		c-11.2-8.2-22.5-16.4-33.7-24.6C894.3,128,894.1,127.6,893.6,127z"/>
	<path class="st0" d="M887.1,90.9c-5.8,3.1-11.6,6.2-17.5,9.3c-0.7,0.4-1.5,0.7-2.1,1.2c-3.9,3.5-7.2,2.3-11.1-0.7
		c-11-8.5-22.4-16.4-33.6-24.7c-1.1-0.8-2.9-1.2-2-3.3c0.8-1.7,1.7-2.7,3.9-2.7c11,0.1,21.9,0.1,32.9,0c1.4,0,2.6,0.2,3.7,1.1
		c8.3,6.1,16.6,12.2,24.9,18.3C886.7,89.7,887.2,90,887.1,90.9z"/>
</g>
</svg>
